
<svg xmlns="http://www.w3.org/2000/svg" width="800" height="600" viewBox="0 0 800 600">
  <defs>
    <linearGradient id="skin1" x1="0%" y1="0%" x2="100%" y2="100%">
      <stop offset="0%" stop-color="#E6A872" />
      <stop offset="100%" stop-color="#BB7A4F" />
    </linearGradient>
    <linearGradient id="skin2" x1="0%" y1="0%" x2="100%" y2="100%">
      <stop offset="0%" stop-color="#BA6E67" />
      <stop offset="100%" stop-color="#94473E" />
    </linearGradient>
    <linearGradient id="hoodie1" x1="0%" y1="0%" x2="100%" y2="100%">
      <stop offset="0%" stop-color="#FFB22D" />
      <stop offset="100%" stop-color="#FF9500" />
    </linearGradient>
    <linearGradient id="hoodie2" x1="0%" y1="0%" x2="100%" y2="100%">
      <stop offset="0%" stop-color="#3B82F6" />
      <stop offset="100%" stop-color="#2563EB" />
    </linearGradient>
    <linearGradient id="hair1" x1="0%" y1="0%" x2="100%" y2="100%">
      <stop offset="0%" stop-color="#5E3320" />
      <stop offset="100%" stop-color="#3A1F13" />
    </linearGradient>
    <linearGradient id="hair2" x1="0%" y1="0%" x2="100%" y2="100%">
      <stop offset="0%" stop-color="#3851C2" />
      <stop offset="100%" stop-color="#253D99" />
    </linearGradient>
    <linearGradient id="hair3" x1="0%" y1="0%" x2="100%" y2="100%">
      <stop offset="0%" stop-color="#1C1E3A" />
      <stop offset="100%" stop-color="#131429" />
    </linearGradient>
  </defs>
  
  <!-- Background -->
  <ellipse cx="300" cy="400" rx="300" ry="250" fill="#FFF4F0" />
  
  <!-- Desk -->
  <rect x="120" y="480" width="400" height="20" fill="#E76F51" rx="2" />
  <line x1="150" y1="500" x2="150" y2="550" stroke="#555" stroke-width="5" />
  <line x1="490" y1="500" x2="490" y2="550" stroke="#555" stroke-width="5" />
  
  <!-- Chair -->
  <rect x="280" y="510" width="80" height="10" fill="#0F172A" rx="2" />
  <rect x="295" y="520" width="50" height="70" fill="#1E293B" rx="5" />
  <rect x="290" y="490" width="60" height="20" fill="#3B82F6" rx="3" />
  
  <!-- Monitor -->
  <rect x="220" y="320" width="200" height="130" fill="#F1F5F9" stroke="#E2E8F0" stroke-width="2" rx="5" />
  <rect x="290" y="450" width="60" height="30" fill="#CBD5E1" rx="3" />
  <rect x="270" y="475" width="100" height="5" fill="#94A3B8" rx="1" />
  
  <!-- Monitor content -->
  <rect x="235" y="335" width="170" height="100" fill="#FFFFFF" rx="3" />
  <rect x="245" y="345" width="60" height="10" fill="#FEE2E2" rx="2" />
  <rect x="245" y="365" width="40" height="10" fill="#3B82F6" rx="2" />
  <rect x="295" y="365" width="60" height="10" fill="#FBBF24" rx="2" />
  <rect x="245" y="385" width="80" height="10" fill="#34D399" rx="2" />
  <rect x="245" y="405" width="100" height="10" fill="#F472B6" rx="2" />
  
  <!-- Person 1 -->
  <circle cx="240" cy="390" r="35" fill="url(#skin1)" />
  <ellipse cx="240" cy="355" rx="30" ry="35" fill="url(#hair1)" />
  <rect x="210" y="390" width="60" height="90" fill="url(#hoodie1)" rx="20" />
  <circle cx="230" cy="385" r="5" fill="#000000" />
  <circle cx="250" cy="385" r="5" fill="#000000" />
  <path d="M230 405 Q240 410 250 405" stroke="#000000" stroke-width="2" fill="none" />
  <rect x="225" y="375" width="30" height="5" fill="#000000" rx="2" />
  
  <!-- Person 2 -->
  <circle cx="310" cy="375" r="30" fill="url(#skin2)" />
  <ellipse cx="310" cy="345" rx="25" ry="30" fill="url(#hair2)" />
  <rect x="285" y="375" width="50" height="80" fill="url(#hoodie2)" rx="20" />
  <circle cx="300" cy="370" r="4" fill="#000000" />
  <circle cx="320" cy="370" r="4" fill="#000000" />
  <path d="M300 385 Q310 390 320 385" stroke="#000000" stroke-width="2" fill="none" />
  
  <!-- Person 3 (partially visible) -->
  <circle cx="280" cy="400" r="25" fill="#30204F" />
  <ellipse cx="280" cy="375" rx="20" ry="25" fill="url(#hair3)" />
  <rect x="255" y="400" width="50" height="70" fill="#059669" rx="15" />
  
  <!-- Computer wires -->
  <path d="M320 450 Q330 460 340 470 Q350 480 390 480" stroke="#E76F51" stroke-width="3" fill="none" />
</svg>
